<?xml version="1.0" encoding="UTF-8" standalone="no" ?>
<!DOCTYPE svg PUBLIC "-//W3C//DTD SVG 1.1//EN" "http://www.w3.org/Graphics/SVG/1.1/DTD/svg11.dtd">
<svg xmlns="http://www.w3.org/2000/svg" xmlns:xlink="http://www.w3.org/1999/xlink" version="1.1" width="1080" height="1080" viewBox="0 0 1080 1080" xml:space="preserve">
<desc>Created with Fabric.js 5.2.4</desc>
<defs>
</defs>
<g transform="matrix(1 0 0 1 540 540)" id="5d6a3e68-edb0-4c9a-8dfa-e34d5a8c1f88"  >
<rect style="stroke: none; stroke-width: 1; stroke-dasharray: none; stroke-linecap: butt; stroke-dashoffset: 0; stroke-linejoin: miter; stroke-miterlimit: 4; fill: rgb(255,255,255); fill-rule: nonzero; opacity: 1; visibility: hidden;" vector-effect="non-scaling-stroke"  x="-540" y="-540" rx="0" ry="0" width="1080" height="1080" />
</g>
<g transform="matrix(1 0 0 1 540 540)" id="730c5d02-9771-4e0b-a48f-2dbb2c5dc40a"  >
</g>
<g transform="matrix(1 0 0 1 540 540)"  >
<g style="" vector-effect="non-scaling-stroke"   >
		<g transform="matrix(1 0 0 1 0 0)" id="Path"  >
<polygon style="stroke: none; stroke-width: 1; stroke-dasharray: none; stroke-linecap: butt; stroke-dashoffset: 0; stroke-linejoin: miter; stroke-miterlimit: 4; fill: rgb(255,255,255); fill-rule: evenodd; opacity: 1;" vector-effect="non-scaling-stroke"  points="-12,-12 12,-12 12,12 -12,12 " />
</g>
		<g transform="matrix(1 0 0 1 0 0)" id="🔹-Icon-Color"  >
<path style="stroke: none; stroke-width: 1; stroke-dasharray: none; stroke-linecap: butt; stroke-dashoffset: 0; stroke-linejoin: miter; stroke-miterlimit: 4; fill: rgb(255,255,255); fill-rule: evenodd; opacity: 1;" vector-effect="non-scaling-stroke"  transform=" translate(-12, -12)" d="M 15 12 C 17.21 12 19 10.21 19 8 C 19 5.79 17.21 4 15 4 C 12.79 4 11 5.79 11 8 C 11 10.21 12.79 12 15 12 Z M 6 10 L 6 8 C 6 7.45 5.55 7 5 7 C 4.45 7 4 7.45 4 8 L 4 10 L 2 10 C 1.45 10 1 10.45 1 11 C 1 11.55 1.45 12 2 12 L 4 12 L 4 14 C 4 14.55 4.45 15 5 15 C 5.55 15 6 14.55 6 14 L 6 12 L 8 12 C 8.55 12 9 11.55 9 11 C 9 10.45 8.55 10 8 10 L 6 10 Z M 15 14 C 12.33 14 7 15.34 7 18 L 7 19 C 7 19.55 7.45 20 8 20 L 22 20 C 22.55 20 23 19.55 23 19 L 23 18 C 23 15.34 17.67 14 15 14 Z" stroke-linecap="round" />
</g>
</g>
</g>
</svg>